/vscmnt/brussel_pixiu_data/_data_brussel/112/vsc11236/PredSimResults/SUBJ10_gait1422_tracking/SUBJ10_gait1422_11454268.mot
version=1
nRows=8
nColumns=50
inDegrees=yes
endheader
                time	         pelvis_tilt	         pelvis_list	     pelvis_rotation	           pelvis_tx	           pelvis_ty	           pelvis_tz	       hip_flexion_r	     hip_adduction_r	      hip_rotation_r	        knee_angle_r	       ankle_angle_r	         mtp_angle_r	       hip_flexion_l	     hip_adduction_l	      hip_rotation_l	        knee_angle_l	       ankle_angle_l	         mtp_angle_l	    lumbar_extension	      lumbar_bending	     lumbar_rotation	 ercspn_r/activation	 intobl_r/activation	 extobl_r/activation	    abd_r/activation	    add_r/activation	hamstrings_r/activation	bifemsh_r/activation	glut_max_r/activation	iliopsoas_r/activation	rect_fem_r/activation	  vasti_r/activation	gastroc_r/activation	 soleus_r/activation	tib_ant_r/activation	 ercspn_l/activation	 intobl_l/activation	 extobl_l/activation	    abd_l/activation	    add_l/activation	hamstrings_l/activation	bifemsh_l/activation	glut_max_l/activation	iliopsoas_l/activation	rect_fem_l/activation	  vasti_l/activation	gastroc_l/activation	 soleus_l/activation	tib_ant_l/activation	
          1.13731047	         -2.91533298	          2.07454281	          4.83152605	          1.37614566	          0.80492149	         -0.00618221	         37.00894119	         -1.99291461	        -11.88818809	        -15.82345391	         -0.61238647	          0.20473515	        -19.73937902	          6.29316173	         -3.06841953	         -3.92993723	         14.46946719	         21.76307878	         -2.43374412	         -2.12909724	         -8.00442732	          0.02138971	          0.06711936	          0.07556818	          0.01683424	          0.04057281	          0.05342585	          0.34903474	          0.07684354	          0.07252475	          0.01071464	          0.07589674	          0.01023519	          0.01000179	          0.15553379	          0.03634597	          0.02294307	          0.01000477	          0.08629527	          0.01100482	          0.16006169	          0.59382516	          0.01191913	          0.60826006	          0.01000242	          0.01000086	          0.10685883	          0.44711501	          0.02959760	
          1.14868357	         -3.27009704	          1.63631552	          4.64632768	          1.39252657	          0.80346921	         -0.00566760	         36.29511900	         -1.18318559	        -10.90537151	        -15.86256495	         -0.76372334	          0.19106001	        -19.58605103	          5.82352957	         -4.01582022	         -5.48609796	         13.58718374	         23.89960961	         -1.76576589	         -1.52341441	         -7.59062755	          0.01798204	          0.16143472	          0.07847207	          0.01415197	          0.03410996	          0.04491294	          0.51148504	          0.06459910	          0.18680141	          0.01000138	          0.06380296	          0.01189937	          0.01189536	          0.21903036	          0.03055572	          0.01931414	          0.08261326	          0.07254584	          0.01000443	          0.15660596	          0.49921103	          0.01002250	          0.51133728	          0.01189601	          0.01188913	          0.19046576	          0.52524475	          0.02488133	
          1.16005668	         -3.56291995	          1.16408667	          4.45327631	          1.40916920	          0.80263903	         -0.00508753	         35.45723988	         -0.31035278	         -9.92705974	        -15.80182027	         -1.08241456	          0.20334296	        -19.38465136	          5.27303898	         -4.91270386	         -7.21606328	         12.33885476	         26.23858098	         -1.15452598	         -0.85798554	         -7.17759710	          0.01511727	          0.13591750	          0.06613267	          0.01189712	          0.02935289	          0.03775643	          0.42998373	          0.05430585	          0.16901645	          0.04148510	          0.08633397	          0.01000355	          0.01000049	          0.19625673	          0.02568760	          0.01647113	          0.07285672	          0.06098675	          0.01000645	          0.19156558	          0.43323227	          0.01001289	          0.42985848	          0.01000287	          0.01000065	          0.17620159	          0.49309512	          0.02091659	
          1.17142978	         -3.77791670	          0.53592131	          4.21012056	          1.42575207	          0.80258572	         -0.00440201	         34.74961551	          0.69105865	         -9.06822268	        -15.90784307	         -2.21177224	          0.20987258	        -19.10796267	          4.52825240	         -5.79776467	         -9.14744775	         10.79561182	         28.68066977	         -0.65428121	          0.01708521	         -6.75025836	          0.01270993	          0.12319913	          0.05559788	          0.01000214	          0.02834065	          0.03174096	          0.36147137	          0.04565391	          0.14208457	          0.03487521	          0.07257760	          0.01280877	          0.02960107	          0.17527164	          0.02159728	          0.01384784	          0.06124875	          0.05126928	          0.01000358	          0.22887685	          0.36420297	          0.01627969	          0.36136259	          0.01001099	          0.01000519	          0.21510444	          0.43479775	          0.01758361	
          1.18280289	         -3.89784348	         -0.21003091	          3.90180499	          1.44221951	          0.80335419	         -0.00360437	         34.22845842	          1.76089443	         -8.38774624	        -16.49664226	         -3.29565305	          0.18864005	        -18.77853889	          3.63160494	         -6.65937790	        -11.27354499	          8.95060125	         31.10950909	         -0.29091533	          1.05859371	         -6.30630797	          0.01911092	          0.10356969	          0.04674047	          0.01521811	          0.04175167	          0.05094762	          0.42616504	          0.09385971	          0.11944418	          0.02931828	          0.06101275	          0.03991419	          0.02488600	          0.17913860	          0.07747233	          0.01164254	          0.05148961	          0.04310002	          0.01000550	          0.24122350	          0.30618508	          0.03369833	          0.30378849	          0.01000848	          0.01085621	          0.18082873	          0.36551416	          0.01478173	
          1.19417599	         -3.90719896	         -0.92812756	          3.53198827	          1.45865562	          0.80490262	         -0.00267894	         33.84319924	          2.76742922	         -7.87018350	        -17.69689156	         -3.52500216	          0.19799695	        -18.43238869	          2.72942767	         -7.45658160	        -13.58835074	          6.82502469	         33.27049949	         -0.06740563	          2.08733170	         -5.85893418	          0.04176590	          0.08706827	          0.03929565	          0.04416020	          0.05079752	          0.07021286	          0.35829788	          0.14605135	          0.10041138	          0.02464683	          0.05129077	          0.03930653	          0.02370931	          0.15059572	          0.09531117	          0.01000527	          0.04328570	          0.03623245	          0.02902503	          0.20292619	          0.31073084	          0.02833077	          0.28924543	          0.01000134	          0.01000050	          0.15201435	          0.30727058	          0.01242634	
          1.20554909	         -3.81136560	         -1.53537403	          3.11163549	          1.47512058	          0.80714685	         -0.00166200	         33.42639231	          3.65021518	         -7.47634827	        -19.14810605	         -3.26479751	          0.30255234	        -18.00199884	          1.90086770	         -8.17305288	        -16.23642128	          4.60918980	         34.71011691	          0.04049393	          3.00389016	         -5.40810787	          0.05515236	          0.07319625	          0.03303776	          0.09341582	          0.09365733	          0.06105323	          0.30120838	          0.19675526	          0.08441137	          0.02071986	          0.04311830	          0.03304600	          0.02660185	          0.12660097	          0.10241625	          0.01000528	          0.03638925	          0.03045915	          0.05755751	          0.17059118	          0.26121889	          0.02381713	          0.30460592	          0.01000062	          0.01000015	          0.12779141	          0.25830795	          0.02993236	
          1.21692220	         -3.63047230	         -2.01132333	          2.66875852	          1.49159028	          0.80996158	         -0.00063019	         32.82173559	          4.40246227	         -7.16187201	        -20.51095653	         -2.62996258	          0.57685327	        -17.36473811	          1.15372211	         -8.80634818	        -19.42586417	          2.59829347	         34.86854118	          0.06345478	          3.78368860	         -4.96244666	          0.04637388	          0.06153429	          0.02777896	          0.14091760	          0.12132361	          0.05133190	          0.25321507	          0.19247881	          0.07096089	          0.01741877	          0.05504106	          0.02778148	          0.02236943	          0.10642933	          0.08610613	          0.01001316	          0.03059226	          0.02560577	          0.06624728	          0.14340830	          0.21959510	          0.02002250	          0.31292574	          0.01002006	          0.01672973	          0.10742834	          0.21714737	          0.08157708	
